<svg width="30" height="30" viewBox="0 0 30 30" fill="none" xmlns="http://www.w3.org/2000/svg">
<path d="M15.8197 17.8309C16.3686 18.325 16.9101 18.8315 17.4546 19.3309C18.605 20.3897 19.7539 21.4468 20.9059 22.4985C21.1908 22.7579 21.3858 23.0756 21.4368 23.5027C21.5043 24.0797 21.3528 24.558 20.9613 24.9197L19.7014 26.0791L15.8887 29.5768C15.7732 29.6827 15.6487 29.778 15.5182 29.8538C15.3579 29.9499 15.1806 30 15.0007 30C14.8209 30 14.6435 29.9499 14.4833 29.8538C14.3436 29.7687 14.211 29.6682 14.0873 29.5538C12.4374 28.0415 10.7905 26.5274 9.1436 25.0132L9.00111 24.8827C8.85524 24.7434 8.73843 24.5666 8.65965 24.3659C8.58087 24.1652 8.54221 23.946 8.54664 23.725C8.54567 23.4934 8.59139 23.2649 8.68004 23.0581C8.76869 22.8514 8.89774 22.6723 9.0566 22.5356C9.52907 22.105 10.0015 21.6691 10.4725 21.235L14.0123 17.9826C14.0873 17.9121 14.1653 17.8415 14.2463 17.7762C14.7652 17.3668 15.3247 17.3826 15.8197 17.8309ZM15.0007 20.2132L10.9885 23.7356L15.0382 27.3038L19.049 23.7797L14.9992 20.2097L15.0007 20.2132ZM24.3481 9.0691L25.4941 10.1209L29.4718 13.7738C29.6386 13.9156 29.7738 14.1029 29.8657 14.3195C29.9577 14.5362 30.0037 14.7758 29.9998 15.0179C29.9989 15.2476 29.9522 15.4737 29.8633 15.6782C29.7745 15.8827 29.646 16.0597 29.4883 16.195C28.5254 17.0738 27.5654 17.9597 26.604 18.8421L24.4411 20.8274C24.3376 20.9209 24.2311 21.0109 24.1156 21.0797C23.9436 21.1915 23.7505 21.2508 23.5539 21.252C23.3574 21.2533 23.1638 21.1964 22.9907 21.0868C22.8757 21.0147 22.7663 20.9308 22.6637 20.8362C20.9808 19.2938 19.304 17.7409 17.6151 16.2056C17.3496 15.9722 17.1707 15.6276 17.1154 15.2431C17.0601 14.8587 17.1327 14.464 17.3181 14.1409C17.3983 14.0121 17.4932 13.8969 17.6001 13.7985C19.28 12.2491 20.9628 10.705 22.6442 9.15909C22.8422 8.97557 23.0567 8.82557 23.3072 8.77086C23.6912 8.68262 24.0392 8.78851 24.3481 9.0691ZM7.25822 9.0691L8.19866 9.9338C9.58457 11.2062 10.969 12.482 12.3564 13.7509C12.6204 13.9926 12.8169 14.2838 12.8784 14.6773C12.9744 15.2791 12.8319 15.7891 12.4179 16.1703L9.75406 18.6179C8.96061 19.3468 8.16716 20.0774 7.37221 20.8027C7.25672 20.9085 7.13223 21.0056 7.00474 21.0868C6.84562 21.1943 6.66474 21.2492 6.48127 21.2456C6.15621 21.2426 5.8424 21.1052 5.59483 20.8574L4.3454 19.7103C3.07049 18.5403 1.79857 17.3668 0.520648 16.1985C0.369175 16.0707 0.244128 15.9044 0.1548 15.7119C0.065473 15.5195 0.0141621 15.3058 0.00468101 15.0868C-0.0134145 14.8445 0.0211409 14.6007 0.1051 14.3785C0.18906 14.1562 0.319667 13.9627 0.48465 13.8162C0.795131 13.5268 1.10861 13.2409 1.42209 12.9515C2.787 11.6985 4.15192 10.4456 5.51383 9.19086C5.72682 8.99498 5.9488 8.82733 6.21879 8.76733C6.40013 8.72413 6.58734 8.72862 6.76704 8.78048C6.94673 8.83235 7.11446 8.9303 7.25822 9.06733V9.0691ZM6.45427 11.4673L2.44203 14.9915L6.49177 18.5597L10.501 15.0356L6.45427 11.4673ZM23.5472 11.4673L19.5349 14.9915L23.5847 18.5597L27.5954 15.0356L23.5472 11.4673ZM15.0142 0.000251201C15.3135 -0.00414118 15.604 0.119387 15.8317 0.347899L17.0931 1.50555C18.3725 2.68085 19.6489 3.85791 20.9299 5.02967C21.2238 5.29967 21.4098 5.64026 21.4443 6.08321C21.4741 6.33048 21.4476 6.58262 21.3674 6.81389C21.2873 7.04517 21.1565 7.24731 20.9883 7.39968C20.6659 7.70497 20.3374 7.99968 20.0119 8.29968L15.9322 12.0479C15.8242 12.145 15.7132 12.242 15.5947 12.3179C15.4148 12.439 15.2113 12.503 15.0041 12.5036C14.7969 12.5042 14.5931 12.4414 14.4128 12.3215C14.3077 12.2535 14.2078 12.175 14.1143 12.0867C12.4314 10.5426 10.7545 8.99145 9.0656 7.45615C8.79612 7.21812 8.61662 6.86533 8.56559 6.47344C8.51456 6.08154 8.59606 5.68171 8.79262 5.35968C8.88112 5.22379 8.99361 5.10732 9.1076 5.00144C10.5955 3.63026 12.0849 2.26261 13.5728 0.894959C13.7783 0.706135 13.9823 0.513781 14.1923 0.330252C14.4251 0.110596 14.7159 -0.00616741 15.0142 0.000251201ZM15.0007 2.7179L10.99 6.24732L15.0397 9.81557L19.0505 6.28968L15.0007 2.72143V2.7179Z" fill="#FF7629" fill-opacity="0.93"/>
</svg>
