<svg width="27" height="27" viewBox="0 0 27 27" fill="none" xmlns="http://www.w3.org/2000/svg">
<path d="M14.0729 0.350096L25.1737 9.84385C25.8504 10.398 26.2427 11.2278 26.2427 12.1028V24.7859C26.2427 26.0343 26.059 26.2457 24.7844 26.2457H1.45104C0.231876 26.2457 0.0204176 26.0824 0.00145928 24.9784L1.04863e-06 12.1043C-0.000365736 11.6717 0.0954906 11.2445 0.280626 10.8535C0.465762 10.4625 0.73554 10.1177 1.07042 9.84385L12.1771 0.350096C12.4412 0.124157 12.7774 0 13.125 0C13.4726 0 13.8088 0.124157 14.0729 0.350096ZM13.125 2.41655L2.45292 11.5384C2.31914 11.6483 2.22913 11.8025 2.19917 11.973L2.1875 12.1043V24.0582H24.0537V12.1028C24.0528 11.9208 23.9842 11.7456 23.8612 11.6113L23.7519 11.5063L13.1235 2.41655H13.125Z" fill="white"/>
</svg>
