<svg width="28" height="26" viewBox="0 0 28 26" fill="none" xmlns="http://www.w3.org/2000/svg">
<path fill-rule="evenodd" clip-rule="evenodd" d="M9.205 0C9.5858 0 9.9484 0.17875 10.213 0.49725L12.187 2.873C12.3175 3.03041 12.4741 3.1556 12.6473 3.24105C12.8205 3.32649 13.0068 3.37044 13.195 3.37025H26.6C26.9713 3.37025 27.3274 3.54146 27.59 3.8462C27.8525 4.15095 28 4.56427 28 4.99525V24.375C28 24.806 27.8525 25.2193 27.59 25.524C27.3274 25.8288 26.9713 26 26.6 26H1.4C1.0287 26 0.672601 25.8288 0.41005 25.524C0.1475 25.2193 0 24.806 0 24.375V1.625C0 1.19402 0.1475 0.780698 0.41005 0.475952C0.672601 0.171205 1.0287 0 1.4 0H9.205ZM8.4448 2.4375H2.1V23.5625H25.9V5.6875H12.089C11.8838 5.68741 11.6811 5.63496 11.4953 5.53387C11.3095 5.43278 11.1451 5.28551 11.0138 5.1025L9.52 3.0225C9.38867 2.83949 9.22428 2.69222 9.03848 2.59113C8.85268 2.49004 8.65 2.43759 8.4448 2.4375Z" fill="white"/>
</svg>
